# xmcd
#
# Track frame offsets:
#	150
#	16737
#	34848
#	49589
#	71224
#	90390
#	107076
#	122799
#	138299
#	155594
#	175072
#	195629
#	211987
#
# Disc length: 3044 seconds
#
# Revision: 0
# Processed by: cddbd v1.5.2PL0 Copyright (c) Steve Scherf et al.
# Submitted via: dBpowerAMP V4.0
#
DISCID=ac0be20d
DTITLE=Whiskey Falls - Whiskey Falls
DYEAR=1900
DGENRE=Country
TTITLE0=Falling Into You
TTITLE1=Last Train Running
TTITLE2=The Night Ain't Over Yet
TTITLE3=Highway 59
TTITLE4=The Champ
TTITLE5=Days Of Birmingham
TTITLE6=Better Days Will Come At Last
TTITLE7=Working Man
TTITLE8=So Much Better
TTITLE9=Keep The Light On
TTITLE10=I Can't Stop Loving You
TTITLE11=Let The Whiskey Fall
TTITLE12=Load Up The Bases
EXTD=
EXTT0=
EXTT1=
EXTT2=
EXTT3=
EXTT4=
EXTT5=
EXTT6=
EXTT7=
EXTT8=
EXTT9=
EXTT10=
EXTT11=
EXTT12=
PLAYORDER=
